<svg width="40" height="40" viewBox="0 0 40 40" fill="none" xmlns="http://www.w3.org/2000/svg">
<rect width="40" height="40" rx="6" fill="#026238"/>
<path d="M31.33 25.0354C31.33 25.6051 31.0947 26.1514 30.676 26.5542C30.2572 26.957 29.6892 27.1833 29.097 27.1833H14.3905C13.7983 27.1835 13.2304 27.4098 12.8117 27.8127L10.3532 30.1775C10.2423 30.2842 10.1011 30.3568 9.94734 30.3862C9.79358 30.4156 9.63421 30.4005 9.48937 30.3428C9.34453 30.2851 9.22074 30.1874 9.13363 30.062C9.04652 29.9366 9.00002 29.7892 9 29.6384V12.1479C9 11.5783 9.23526 11.0319 9.65403 10.6291C10.0728 10.2263 10.6408 10 11.233 10H29.097C29.6892 10 30.2572 10.2263 30.676 10.6291C31.0947 11.0319 31.33 11.5783 31.33 12.1479V25.0354Z" stroke="white" stroke-width="2" stroke-linecap="round" stroke-linejoin="round"/>
</svg>
