
<svg version="1.0" xmlns="http://www.w3.org/2000/svg"
 viewBox="0 0 331.000000 338.000000"
 preserveAspectRatio="xMidYMid meet">

<g transform="translate(0.000000,338.000000) scale(0.100000,-0.100000)"
fill="current" stroke="current">
<path d="M1580 3213 c-375 -16 -743 -176 -1014 -441 -615 -601 -628 -1582 -28
-2196 269 -275 622 -439 1000 -465 355 -24 680 63 980 263 173 116 302 245
416 415 202 304 289 626 265 983 -56 834 -779 1477 -1619 1441z m275 -74 c487
-65 912 -374 1139 -827 151 -300 189 -692 102 -1030 -134 -514 -554 -934
-1068 -1068 -238 -61 -518 -61 -756 0 -514 134 -934 554 -1068 1068 -61 238
-61 518 0 756 135 521 560 941 1084 1071 190 47 365 56 567 30z"/>
<path d="M1118 2594 c-67 -28 -68 -36 -68 -443 0 -286 3 -361 13 -361 7 0 48
36 92 80 l80 80 382 0 c421 0 443 3 476 59 15 25 17 61 17 270 0 256 -3 277
-49 308 -24 16 -64 18 -466 20 -378 2 -445 0 -477 -13z"/>
<path d="M2160 2350 c0 -6 12 -22 28 -35 l27 -23 3 -281 c2 -155 -1 -281 -5
-281 -5 0 -35 27 -68 60 l-59 60 -318 0 -317 0 -23 30 c-19 26 -48 41 -48 24
0 -14 24 -51 44 -66 19 -16 53 -18 336 -18 l316 0 64 -65 c44 -44 71 -65 85
-63 19 3 20 12 23 278 1 151 0 290 -3 309 -4 18 -17 44 -30 57 -25 25 -55 32
-55 14z"/>
<path d="M650 1096 l0 -126 55 0 c102 0 157 41 159 119 2 81 -41 119 -145 128
l-69 6 0 -127z m147 47 c7 -9 13 -32 13 -50 0 -44 -30 -73 -75 -73 l-35 0 0
68 c0 38 3 72 8 76 12 13 76 -2 89 -21z"/>
<path d="M910 1200 c0 -15 7 -20 25 -20 18 0 25 5 25 20 0 15 -7 20 -25 20
-18 0 -25 -5 -25 -20z"/>
<path d="M1904 1205 c-40 -21 -64 -64 -64 -117 0 -50 19 -82 60 -103 37 -19
100 -19 126 -1 17 14 18 16 3 31 -12 12 -22 14 -40 6 -30 -11 -83 8 -93 34
-11 31 -6 62 16 90 19 24 26 27 64 22 47 -5 77 14 56 35 -18 18 -94 20 -128 3z"/>
<path d="M2080 1095 l0 -125 25 0 c23 0 25 3 25 48 0 57 22 95 53 90 20 -3 22
-10 25 -70 3 -65 4 -68 27 -68 24 0 25 2 25 73 0 59 -4 77 -18 90 -20 19 -77
23 -87 7 -14 -23 -25 -7 -25 35 0 41 -2 45 -25 45 l-25 0 0 -125z"/>
<path d="M1600 1170 c0 -11 -4 -20 -10 -20 -5 0 -10 -9 -10 -20 0 -11 5 -20
10 -20 6 0 10 -23 10 -51 0 -69 12 -89 55 -89 28 0 35 4 35 19 0 10 -9 21 -20
24 -16 4 -20 14 -20 51 0 39 3 46 20 46 13 0 20 7 20 20 0 13 -7 20 -20 20
-13 0 -20 7 -20 20 0 15 -7 20 -25 20 -18 0 -25 -5 -25 -20z"/>
<path d="M2550 1170 c0 -11 -4 -20 -10 -20 -5 0 -10 -9 -10 -20 0 -11 5 -20
10 -20 6 0 10 -23 10 -51 0 -69 12 -89 55 -89 28 0 35 4 35 19 0 10 -9 21 -20
24 -16 4 -20 14 -20 51 0 39 3 46 20 46 13 0 20 7 20 20 0 13 -7 20 -20 20
-13 0 -20 7 -20 20 0 15 -7 20 -25 20 -18 0 -25 -5 -25 -20z"/>
<path d="M910 1060 c0 -89 0 -90 25 -90 25 0 25 1 25 90 0 89 0 90 -25 90 -25
0 -25 -1 -25 -90z"/>
<path d="M1000 1060 c0 -89 0 -90 25 -90 23 0 25 4 25 45 0 35 6 52 25 70 13
14 31 25 40 25 8 0 15 9 15 20 0 25 -36 27 -62 3 -17 -15 -18 -15 -18 0 0 11
-8 17 -25 17 -25 0 -25 -1 -25 -90z"/>
<path d="M1186 1119 c-35 -41 -34 -83 3 -120 32 -31 84 -39 122 -18 32 17 6
39 -37 32 -33 -5 -64 8 -64 28 0 5 29 9 65 9 62 0 65 1 65 24 0 13 -9 35 -21
50 -16 21 -29 26 -64 26 -36 0 -48 -5 -69 -31z m102 -26 c2 -9 -9 -13 -38 -13
-37 0 -41 2 -30 16 15 17 61 15 68 -3z"/>
<path d="M1406 1128 c-38 -35 -39 -96 -1 -133 28 -29 88 -34 119 -10 28 21 10
37 -34 30 -34 -6 -41 -3 -55 19 -16 24 -16 28 0 52 14 22 21 25 55 19 44 -7
64 10 35 32 -30 21 -90 16 -119 -9z"/>
<path d="M2324 1125 c-18 -18 -24 -35 -24 -65 0 -30 6 -47 24 -65 21 -21 33
-24 95 -23 l71 0 0 88 0 88 -71 0 c-62 1 -74 -2 -95 -23z m104 -27 c21 -21 15
-67 -12 -79 -34 -16 -66 3 -66 39 0 33 16 52 45 52 12 0 26 -5 33 -12z"/>
</g>
</svg>
